<svg width="33" height="30" viewBox="0 0 33 30" fill="none" xmlns="http://www.w3.org/2000/svg">
<path fill-rule="evenodd" clip-rule="evenodd" d="M0 2C0 0.895447 0.895432 0 2 0H31C32.1046 0 33 0.895447 33 2V28C33 29.1046 32.1046 30 31 30H2C0.895432 30 0 29.1046 0 28V2ZM1 2C1 1.44769 1.44772 1 2 1H31C31.5523 1 32 1.44769 32 2V28C32 28.5523 31.5523 29 31 29H2C1.44772 29 1 28.5523 1 28V2ZM23 25H27V16.5581C27 12.9861 24.912 11.2598 22.083 11.2598C19.255 11.2598 18 13.4619 18 13.4619V12H14V25H18V18.001C18 16.126 18.981 15.0098 20.634 15.0098C22.153 15.0098 23 16.081 23 18.001V25ZM8.50452 9.73096C8.8015 9.85529 9.12006 9.91974 9.44202 9.9209C9.76393 9.91974 10.0825 9.85529 10.3794 9.73096C10.6763 9.60663 10.9458 9.42487 11.1725 9.19629C11.3992 8.96771 11.5786 8.69684 11.7006 8.39893C11.8225 8.10101 11.8845 7.78186 11.883 7.45996C11.8854 6.81006 11.6296 6.18591 11.1719 5.72461C10.7141 5.26331 10.0919 5.00262 9.44202 5C9.12015 5.00116 8.80166 5.06567 8.50475 5.18994C8.20782 5.31421 7.93829 5.49567 7.71153 5.72412C7.48477 5.95258 7.30522 6.22363 7.18314 6.52148C7.06106 6.81934 6.99883 7.13806 7.00002 7.45996C6.9987 7.78192 7.06084 8.10101 7.18286 8.39893C7.30488 8.69684 7.48441 8.96777 7.71118 9.19629C7.93795 9.4248 8.20753 9.60663 8.50452 9.73096ZM12 25H7.00002V12H12V25Z" fill="black"/>
</svg>
