<svg width="150" height="40" viewBox="0 0 150 40" fill="none" xmlns="http://www.w3.org/2000/svg">
<mask id="path-1-inside-1" fill="white">
<path fill-rule="evenodd" clip-rule="evenodd" d="M19 0C15.6863 0 13 2.68629 13 6V12.6357L0.696198 19.7393L13 26.8429V34C13 37.3137 15.6863 40 19 40H144C147.314 40 150 37.3137 150 34V6C150 2.68629 147.314 0 144 0H19Z"/>
</mask>
<path d="M13 12.6357L13.5 13.5017L14 13.213V12.6357H13ZM0.696198 19.7393L0.196197 18.8732L-1.3038 19.7393L0.196198 20.6053L0.696198 19.7393ZM13 26.8429H14V26.2655L13.5 25.9768L13 26.8429ZM14 6C14 3.23858 16.2386 1 19 1V-1C15.134 -1 12 2.13401 12 6H14ZM14 12.6357V6H12V12.6357H14ZM1.1962 20.6053L13.5 13.5017L12.5 11.7696L0.196197 18.8732L1.1962 20.6053ZM13.5 25.9768L1.1962 18.8732L0.196198 20.6053L12.5 27.7089L13.5 25.9768ZM14 34V26.8429H12V34H14ZM19 39C16.2386 39 14 36.7614 14 34H12C12 37.866 15.134 41 19 41V39ZM144 39H19V41H144V39ZM149 34C149 36.7614 146.761 39 144 39V41C147.866 41 151 37.866 151 34H149ZM149 6V34H151V6H149ZM144 1C146.761 1 149 3.23858 149 6H151C151 2.13401 147.866 -1 144 -1V1ZM19 1H144V-1H19V1Z" fill="#2F3269" mask="url(#path-1-inside-1)"/>
</svg>
