<svg width="145" height="40" viewBox="0 0 145 40" fill="none" xmlns="http://www.w3.org/2000/svg">
<mask id="path-1-inside-1" fill="white">
<path fill-rule="evenodd" clip-rule="evenodd" d="M19 0C15.6863 0 13 2.68629 13 6V13.1729L0.760742 20.2393L13 27.3056V34C13 37.3137 15.6863 40 19 40H139C142.314 40 145 37.3137 145 34V6C145 2.68629 142.314 0 139 0H19Z"/>
</mask>
<path d="M13 13.1729L13.5 14.039L14 13.7503V13.1729H13ZM0.760742 20.2393L0.260742 19.3732L-1.23926 20.2393L0.260742 21.1053L0.760742 20.2393ZM13 27.3056H14V26.7283L13.5 26.4396L13 27.3056ZM14 6C14 3.23858 16.2386 1 19 1V-1C15.134 -1 12 2.13401 12 6H14ZM14 13.1729V6H12V13.1729H14ZM1.26074 21.1053L13.5 14.039L12.5 12.3069L0.260742 19.3732L1.26074 21.1053ZM13.5 26.4396L1.26074 19.3732L0.260742 21.1053L12.5 28.1716L13.5 26.4396ZM14 34V27.3056H12V34H14ZM19 39C16.2386 39 14 36.7614 14 34H12C12 37.866 15.134 41 19 41V39ZM139 39H19V41H139V39ZM144 34C144 36.7614 141.761 39 139 39V41C142.866 41 146 37.866 146 34H144ZM144 6V34H146V6H144ZM139 1C141.761 1 144 3.23858 144 6H146C146 2.13401 142.866 -1 139 -1V1ZM19 1H139V-1H19V1Z" fill="#2F3269" mask="url(#path-1-inside-1)"/>
</svg>
